<?xml version="1.0" encoding="utf-8"?>
<!-- Svg Vector Icons : http://www.onlinewebfonts.com/icon -->
<!DOCTYPE svg PUBLIC "-//W3C//DTD SVG 1.1//EN" "http://www.w3.org/Graphics/SVG/1.1/DTD/svg11.dtd">
<svg version="1.1" xmlns="http://www.w3.org/2000/svg" xmlns:xlink="http://www.w3.org/1999/xlink" x="0px" y="0px" viewBox="0 0 1000 1000" enable-background="new 0 0 1000 1000" xml:space="preserve">
<metadata> Svg Vector Icons : http://www.onlinewebfonts.com/icon </metadata>
<g><path d="M918.2,431.8C872,385.5,810.5,360,745,360c0,0,0,0,0,0H129.5l150.3-150.3c13.7-13.7,13.7-35.8,0-49.5C272.9,153.4,264,150,255,150s-17.9,3.4-24.7,10.3l-210,210c-13.7,13.7-13.7,35.8,0,49.5l210,210c13.7,13.7,35.8,13.7,49.5,0c13.7-13.7,13.7-35.8,0-49.5L129.5,430H745c96.5,0,175,78.5,175,175c0,96.5-78.5,175-175,175H465c-19.3,0-35,15.7-35,35s15.7,35,35,35h280c65.4,0,127-25.5,173.2-71.8C964.5,732,990,670.4,990,605C990,539.6,964.5,478,918.2,431.8z"/></g>
</svg>