<?xml version="1.0" encoding="utf-8"?>
<!-- Svg Vector Icons : http://www.onlinewebfonts.com/icon -->
<!DOCTYPE svg PUBLIC "-//W3C//DTD SVG 1.1//EN" "http://www.w3.org/Graphics/SVG/1.1/DTD/svg11.dtd">
<svg version="1.1" xmlns="http://www.w3.org/2000/svg" xmlns:xlink="http://www.w3.org/1999/xlink" x="0px" y="0px" viewBox="0 0 1000 1000" enable-background="new 0 0 1000 1000" xml:space="preserve">
<metadata> Svg Vector Icons : http://www.onlinewebfonts.com/icon </metadata>
<g><path d="M940.7,938.1l-67.2-67.2c-6.1-6.1-12.2-6.1-24.4-6.1c24.4-30.5,42.7-67.2,42.7-109.9c0-97.7-79.4-171-171-171c-91.6,0-171,79.4-171,171c0,97.7,79.4,171,171,171c42.7,0,73.3-12.2,103.8-36.6c0,6.1,0,12.2,12.2,24.4c18.3,18.3,67.2,67.2,67.2,67.2c12.2,12.2,30.5,12.2,42.7,0C952.9,962.5,952.9,950.3,940.7,938.1z M720.9,864.8c-61.1,0-109.9-55-109.9-109.9c0-61.1,55-109.9,109.9-109.9c55,0,109.9,55,109.9,109.9C830.8,816,788,864.8,720.9,864.8z"/><path d="M617.1,254.2H232.4c-12.2,0-18.3,12.2-18.3,24.4c0,12.2,6.1,24.4,18.3,24.4h384.7c18.3,0,24.4-12.2,24.4-24.4C635.4,272.6,635.4,254.2,617.1,254.2z"/><path d="M635.4,480.2c0-6.1,0-24.4-24.4-24.4H232.4c-12.2,0-18.3,12.2-18.3,24.4c0,12.2,6.1,24.4,18.3,24.4h384.7C635.4,504.6,635.4,486.3,635.4,480.2z"/><path d="M232.4,663.3c-12.2,0-18.3,12.2-18.3,24.4c0,12.2,6.1,24.4,18.3,24.4c0,0,207.6,0,213.7,0c18.3,0,24.4-12.2,24.4-24.4c0-6.1,0-24.4-24.4-24.4H232.4z"/><path d="M476.6,901.5H165.2l0,0h-6.1c-12.2,0-24.4,0-36.6-6.1c-6.1-6.1-12.2-12.2-18.3-24.4c-6.1-6.1-6.1-24.4-6.1-36.6c0-6.1,0-6.1,0-12.2V138.2c0-6.1,0-6.1,0-6.1c0-42.7,6.1-67.2,36.6-67.2c6.1,0,6.1,0,6.1,0h6.1h6.1c0,0,0,0,6.1,0h525.1h12.2c42.7,0,36.6,36.6,36.6,61.1v6.1v323.6c0,6.1,0,30.5,0,36.6c0,18.3,18.3,18.3,24.4,18.3c12.2,0,24.4-6.1,24.4-18.3V113.8c0-6.1,0-6.1,0-6.1c0-6.1,0-12.2,0-12.2c0-61.1-30.5-85.5-67.2-85.5c-6.1,0-12.2,0-18.3,0h-6.1H134.7c-6.1,0-6.1,0-6.1,0h-6.1h-6.1C92,10,49.2,40.5,49.2,83.3v6.1v6.1v708.3c0,6.1,0,12.2,0,12.2c0,24.4,0,55,6.1,67.2c12.2,30.5,36.6,42.7,67.2,55c6.1,0,12.2,6.1,24.4,6.1c6.1,0,6.1,0,12.2,0s6.1,0,12.2,0c0,0,305.3,0,311.4,0c12.2,0,18.3-12.2,18.3-24.4C494.9,913.7,482.7,901.5,476.6,901.5z"/></g>
</svg>