<?xml version="1.0" encoding="UTF-8"?>
<!-- Svg Vector Icons : http://www.onlinewebfonts.com/icon -->
<!DOCTYPE svg PUBLIC "-//W3C//DTD SVG 1.1//EN" "http://www.w3.org/Graphics/SVG/1.1/DTD/svg11.dtd">
<svg version="1.1" xmlns="http://www.w3.org/2000/svg" xmlns:xlink="http://www.w3.org/1999/xlink" x="0px" y="0px" viewBox="0 0 1000 1000" enable-background="new 0 0 1000 1000" xml:space="preserve">
<metadata> Svg Vector Icons : http://www.onlinewebfonts.com/icon </metadata>
<g><path d="M385.7,38.8H10v260.3h299.5l76,75.8L385.7,38.8z M310.3,225.5H160.1v-37.4h150.2V225.5z M310.3,150.8H85.1v-37.4h225.3V150.8z M798.6,756.6c-41.3,22.8-88.6,35.9-138.7,35.9c-50.1,0-97.4-13-138.7-35.9c-89.3,24.2-159.3,81.4-191.4,204.6H990C958,838.1,888,780.8,798.6,756.6z M659.9,714c136.7,0,247.6-110.7,247.6-247.2c0-136.5-110.8-247.2-247.6-247.2c-136.8,0-247.6,110.6-247.6,247.2C412.4,603.3,523.2,714,659.9,714z M825.5,549.2c-30.5,60.8-92.8,103-165.5,103c-72.7,0-135.1-42.1-165.5-103H825.5z"/></g>
</svg>