<?xml version="1.0" encoding="utf-8"?>
<!-- Svg Vector Icons : http://www.onlinewebfonts.com/icon -->
<!DOCTYPE svg PUBLIC "-//W3C//DTD SVG 1.1//EN" "http://www.w3.org/Graphics/SVG/1.1/DTD/svg11.dtd">
<svg version="1.1" xmlns="http://www.w3.org/2000/svg" xmlns:xlink="http://www.w3.org/1999/xlink" x="0px" y="0px" viewBox="0 0 1000 1000" enable-background="new 0 0 1000 1000" xml:space="preserve">
<metadata> Svg Vector Icons : http://www.onlinewebfonts.com/icon </metadata>
<g><path d="M255,377.5h61.3v-30.6H255V377.5z M255,530.6h61.3V500H255V530.6z M377.5,377.5H745v-30.6H377.5V377.5z M377.5,530.6H745V500H377.5V530.6z M500,10C229.4,10,10,229.4,10,500c0,270.6,219.4,490,490,490c270.6,0,490-219.4,490-490C990,229.4,770.6,10,500,10z M500,959.4C246.3,959.4,40.6,753.7,40.6,500S246.3,40.6,500,40.6S959.4,246.3,959.4,500S753.7,959.4,500,959.4z M255,683.8h61.3v-30.6H255V683.8z M377.5,683.8H745v-30.6H377.5V683.8z"/></g>
</svg>