<?xml version="1.0" ?><!DOCTYPE svg  PUBLIC '-//W3C//DTD SVG 1.1//EN'  'http://www.w3.org/Graphics/SVG/1.1/DTD/svg11.dtd'><svg enable-background="new 0 0 512 512" height="512px" id="Layer_1" version="1.1" viewBox="0 0 512 512" width="512px" xml:space="preserve" xmlns="http://www.w3.org/2000/svg" xmlns:xlink="http://www.w3.org/1999/xlink"><g><path d="M397.983,169.71V32.76h-71.896v65.204l-68.695-68.676v-0.289l-1.278-1.242l-0.112,0.14l-0.13-0.14   l-1.327,1.242v0.289L0,283.461l33.456,33.522l31.86-30.611v137.435H446.64V286.372l31.843,30.611l33.428-33.522L397.983,169.71z    M255.945,316.833c-33.688,0-60.977-27.308-60.977-60.969c0-33.708,27.288-60.985,60.977-60.985   c33.672,0,60.979,27.277,60.979,60.985C316.924,289.525,289.617,316.833,255.945,316.833z" fill="#174A97"/></g></svg>