<?xml version="1.0" encoding="utf-8"?>
<!-- Svg Vector Icons : http://www.onlinewebfonts.com/icon -->
<!DOCTYPE svg PUBLIC "-//W3C//DTD SVG 1.1//EN" "http://www.w3.org/Graphics/SVG/1.1/DTD/svg11.dtd">
<svg version="1.1" xmlns="http://www.w3.org/2000/svg" xmlns:xlink="http://www.w3.org/1999/xlink" x="0px" y="0px" viewBox="0 0 1000 1000" enable-background="new 0 0 1000 1000" xml:space="preserve">
<metadata> Svg Vector Icons : http://www.onlinewebfonts.com/icon </metadata>
<g><path d="M616.9,359.6c-6.3-32-18.1-62-34.3-89.1l41.1-40.1l-86.9-89l-40,39c-28.4-18.9-60.4-32.8-94.8-40.3V94.8H277.6v46c-33.7,7.8-65.2,21.8-93,40.6l-41.3-38.6l-80.7,86.3l40,37.4c-17.5,28.2-30.2,59.8-36.8,93.6L10,360.7l1.6,120.1l56.7-0.7c7.2,30.1,19.3,58.3,35.4,83.8l-40.3,41.8l87.1,84.1l38.3-39.7c26,16.9,55,29.6,86,37.2v51.1h124.4v-49.1c31.8-6.6,61.6-18.7,88.4-35.1l38.2,37.9l87.6-88.3l-36.5-36.2c17.6-26.9,30.6-57.1,38.1-89.4h66V359.7L616.9,359.6L616.9,359.6z M345.4,618.8c-111.7,0-202.3-90.6-202.3-202.3c0-111.7,90.6-202.3,202.3-202.3c111.7,0,202.3,90.6,202.3,202.3C547.7,528.2,457.2,618.8,345.4,618.8z"/><path d="M289.9,416.5L289.9,416.5c0,30.7,24.9,55.6,55.6,55.6c30.7,0,55.6-24.9,55.6-55.6l0,0l0,0c0-30.7-24.9-55.6-55.6-55.6C314.7,360.9,289.9,385.8,289.9,416.5C289.9,447.2,289.9,416.5,289.9,416.5z"/><path d="M345.4,266.7c-82.7,0-149.8,67.1-149.8,149.8c0,82.7,67.1,149.8,149.8,149.8c82.7,0,149.8-67.1,149.8-149.8C495.3,333.8,428.2,266.7,345.4,266.7L345.4,266.7z M345.4,513.6c-53.6,0-97.1-43.5-97.1-97.1c0-53.6,43.5-97.1,97.1-97.1c53.6,0,97.1,43.5,97.1,97.1C442.5,470.1,399,513.6,345.4,513.6z"/><path d="M951.4,677.2c-3.8-19.3-10.9-37.4-20.7-53.7l24.7-24.1l-52.3-53.6l-24.1,23.5c-17.1-11.4-36.4-19.8-57.1-24.3v-27.3h-75v27.7c-20.3,4.7-39.2,13.1-56,24.4l-24.9-23.3l-48.6,52l24.1,22.5c-10.6,17-18.2,36-22.2,56.4l-33.6,0.4l1,72.3l34.1-0.4c4.3,18.1,11.6,35.1,21.3,50.5l-24.3,25.2l52.5,50.7l23.1-23.9c15.7,10.2,33.1,17.8,51.8,22.4v30.8h75v-29.6c19.1-4,37.1-11.2,53.3-21.1l23,22.8l52.8-53.2l-22-21.8c10.6-16.2,18.4-34.4,23-53.8H990v-71.3L951.4,677.2L951.4,677.2z M787.9,833.2c-67.3,0-121.9-54.6-121.9-121.8c0-67.3,54.6-121.8,121.9-121.8c67.3,0,121.8,54.6,121.8,121.8C909.7,778.7,855.1,833.2,787.9,833.2z"/><path d="M754.4,711.4L754.4,711.4c0,18.5,15,33.5,33.5,33.5c18.5,0,33.5-15,33.5-33.5l0,0l0,0c0-18.5-15-33.5-33.5-33.5C769.4,677.9,754.4,692.9,754.4,711.4C754.4,729.9,754.4,711.4,754.4,711.4z"/><path d="M787.9,621.2c-49.8,0-90.3,40.4-90.3,90.3c0,49.8,40.4,90.3,90.3,90.3c49.9,0,90.3-40.4,90.3-90.3C878.1,661.6,837.7,621.2,787.9,621.2z M787.9,769.9c-32.3,0-58.5-26.2-58.5-58.5c0-32.3,26.2-58.5,58.5-58.5s58.5,26.2,58.5,58.5C846.3,743.7,820.2,769.9,787.9,769.9z"/></g>
</svg>