<?xml version="1.0" encoding="utf-8"?>
<!-- Svg Vector Icons : http://www.onlinewebfonts.com/icon -->
<!DOCTYPE svg PUBLIC "-//W3C//DTD SVG 1.1//EN" "http://www.w3.org/Graphics/SVG/1.1/DTD/svg11.dtd">
<svg version="1.1" xmlns="http://www.w3.org/2000/svg" xmlns:xlink="http://www.w3.org/1999/xlink" x="0px" y="0px" viewBox="0 0 1000 1000" enable-background="new 0 0 1000 1000" xml:space="preserve">
<metadata> Svg Vector Icons : http://www.onlinewebfonts.com/icon </metadata>
<g><path d="M209.2,830.1c0-39.7-32.2-71.9-71.9-71.9c-39.7,0-71.9,32.2-71.9,71.9S97.6,902,137.3,902C177,902,209.2,869.8,209.2,830.1z M137.3,869.6c-21.7,0-39.4-17.7-39.4-39.4c0-21.7,17.7-39.4,39.4-39.4c21.7,0,39.4,17.7,39.4,39.4C176.7,851.9,159.1,869.6,137.3,869.6z"/><path d="M411.6,526.2L401,510.5L342.5,550l10.6,15.7L411.6,526.2z"/><path d="M621.3,822.4c0-44-35.6-79.6-79.6-79.6c-44,0-79.6,35.6-79.6,79.6c0,43.9,35.6,79.6,79.6,79.6C585.7,902,621.3,866.4,621.3,822.4z M541.7,864.1c-23,0-41.6-18.7-41.6-41.6c0-23,18.7-41.6,41.6-41.6c23,0,41.6,18.7,41.6,41.6C583.3,845.4,564.7,864.1,541.7,864.1z"/><path d="M693,533.7v13.4c-12.9-2.6-29.6-12.2-29.6-48.6V349.9h-32.7v-6.4v-48.5h-61.1h-10.5h-9.5v31.6l9.5,3.9v90.9l10.2,4.9v265.2h-26.2l-30.3-35.4c-13.4-41.3-55.2-168.3-81.5-223.3c-33.9-70.8-98.3-73.2-101.3-73.2h-182v9.3v16v8.9h14.2l-13.7,182.5H64.7l-1.5,2.9c-0.7,1.4-2.5,4-4.7,7.1c-7.7,11.1-23,32.9-34.3,66.6h37.2v22.2H17.9c-2.1,8.6-3.8,17.9-5.2,27.8h37.6v22.2H10.6c-0.4,6.1-0.6,12.4-0.6,18.8c0,72.7,17.3,95.1,18,96l1.6,2h19.3c-0.5-3.9-0.8-7.8-0.8-11.8c0-49.2,40-89.3,89.3-89.3c49.2,0,89.2,40,89.2,89.3c0,4-0.3,7.9-0.8,11.8H415v18.6h38.2c-5.1-11.7-7.9-24.6-7.9-38.1c0-53.2,43.3-96.4,96.4-96.4c53.2,0,96.4,43.3,96.4,96.4c0,6.7-0.7,13.2-2,19.5h23V700.7h-28.4V584.9H693v7.1h297v-58.3H693z M579,328.3l33.2,13.2v11.4L579,339.7V328.3z M579,357.1l33.2,13.2v11.4L579,368.5V357.1z M579,385.9l33.2,13.2v11.4L579,397.4V385.9z M422.5,767.6h-78.9l-173-90.7l1.8-24.1l19.4-258.9h138c3.5,0.2,52.4,3.2,79,57.1c17,34.4,41.4,101.2,59.6,153.2l-43.2-50.6l-18,12L396,549.3l-17.3,12l11,16l-16.8,11.2l71.7,122.8h-87.1l-9.6-60.9c-2.1-13.4-13.5-38.9-41-38.9h-38.7c-0.7-10.4-2.3-27.7-6.2-41.6l-0.4-1.6c-5.4-19.2-8.9-31.9-30.8-31.9c-9.1,0-14.9-0.1-14.9-0.1c-2.5,0-5.2,1-7,2.9c-1.8,1.9-2.8,4.4-2.7,7.1l6.3,127.4l136.7,71.7l84.6,0C429.2,752.3,425.5,759.8,422.5,767.6z"/><path d="M706.2,316.8v200.6h266.4V316.8H706.2z M734.8,383h21.7l38.2,26.3h-59.9V383z M734.8,371.3v-3.2l4.7,3.2H734.8z M734.8,421h76.9l42.6,29.3H734.8V421z M818.5,383h125.4v26.3h-87.3L818.5,383z M943.9,421v29.3h-27.7L873.7,421H943.9z M933.3,462h10.6v7.3L933.3,462z M943.9,345.7v25.5H801.5l-37.1-25.5H943.9z M734.8,488.6V462h136.5l38.5,26.5H734.8z"/><path d="M706.2,98v200.6h266.4V98H706.2z M734.8,164.2h21.7l38.2,26.3h-59.8V164.2z M734.8,152.4v-3.2l4.6,3.2H734.8z M734.8,202.2h76.9l42.6,29.3H734.8V202.2z M818.5,164.2h125.5v26.3h-87.3L818.5,164.2z M943.9,202.2v29.3h-27.7l-42.6-29.3H943.9z M933.3,243.2h10.6v7.3L933.3,243.2z M943.9,126.9v25.6H801.5l-37.1-25.6H943.9z M734.8,269.7v-26.5h136.5l38.6,26.5H734.8z"/></g>
</svg>