<?xml version="1.0" encoding="utf-8"?>
<!-- Svg Vector Icons : http://www.onlinewebfonts.com/icon -->
<!DOCTYPE svg PUBLIC "-//W3C//DTD SVG 1.1//EN" "http://www.w3.org/Graphics/SVG/1.1/DTD/svg11.dtd">
<svg version="1.1" xmlns="http://www.w3.org/2000/svg" xmlns:xlink="http://www.w3.org/1999/xlink" x="0px" y="0px" viewBox="0 0 1000 1000" enable-background="new 0 0 1000 1000" xml:space="preserve">
<metadata> Svg Vector Icons : http://www.onlinewebfonts.com/icon </metadata>
<g><g transform="translate(0.000000,511.000000) scale(0.100000,-0.100000)"><path d="M1207.7,3750.6c-40.2-23-69-61.3-82.4-109.2c-15.3-49.8-19.2-339.2-15.3-919.9l5.7-847.1l55.6-57.5c47.9-49.8,70.9-59.4,145.6-59.4c74.7,0,97.7,9.6,145.6,59.4l55.6,57.5l5.7,757l5.8,755.1h2345.7H6223V722.7v-2663.8h-852.8h-852.8l-61.3-55.6c-53.7-47.9-63.2-69-63.2-143.7c0-69,11.5-97.8,53.7-139.9l51.7-53.7l1289.7-5.7c1165.2-5.7,1293.6-1.9,1347.2,24.9c111.2,59.4,139.9,214.6,57.5,310.5c-46,53.7-51.7,53.7-302.8,63.2l-254.9,9.6L6629.3,211l-3.8,2140.6h783.8H8195l651.6-605.6l653.5-607.5l-3.8-1535.1l-5.8-1535.1l-147.6-9.6c-120.7-7.7-155.2-17.2-195.5-55.6c-63.2-59.4-78.6-134.2-42.1-218.5c44.1-109.2,105.4-128.4,402.4-128.4h260.6l61.3,55.6l63.2,55.6l5.7,1755.5c3.8,1389.4,0,1765-19.2,1801.4c-13.4,23-283.6,283.6-599.8,576.8c-316.2,293.2-640.1,596-720.6,672.7c-80.5,78.6-170.6,153.3-201.2,170.6c-47.9,24.9-182.1,28.7-895,28.7h-839.4l1.9,427.4c1.9,306.6-3.8,442.7-21.1,481c-51.7,113.1,103.5,107.3-2732.8,107.3C1326.5,3788.9,1267.1,3788.9,1207.7,3750.6z"/><path d="M7102.6,1682.8l-55.6-55.6V638.3c0-724.4,5.7-1000.4,23-1036.8c47.9-105.4,55.6-105.4,992.7-105.4c942.9,0,944.8,0,994.6,109.2c13.4,30.7,21.1,277.9,21.1,730.2v682.2l-360.3,360.3l-360.3,360.3H7758h-599.8L7102.6,1682.8z M8430.7,1092.5L8676,847.2V373.9v-475.3h-613.3h-613.3v718.7v718.7h368h369.9L8430.7,1092.5z"/><path d="M1037.1,1519.9c-78.6-34.5-122.6-99.7-122.6-184c0-86.2,44.1-149.5,126.5-184c95.8-40.2,2508.6-40.2,2604.4,0c67.1,28.7,124.6,113.1,124.6,184c0,70.9-57.5,155.2-124.6,184C3549.6,1558.2,1127.2,1558.2,1037.1,1519.9z"/><path d="M579.1,469.7c-101.6-90.1-93.9-256.8,15.3-322c59.4-36.4,103.5-38.3,1331.9-38.3c1096.2,0,1278.3,3.8,1326.2,28.8c70.9,36.4,95.8,82.4,95.8,182.1c0,63.2-11.5,92-55.6,136.1l-55.6,55.6H1932.1H628.9L579.1,469.7z"/><path d="M215-521.1c-74.7-30.7-115-97.8-115-187.8c0-72.8,9.6-93.9,63.2-141.8l61.3-55.6h1299.3c1199.7,0,1301.3,3.8,1337.7,34.5c105.4,84.3,113.1,208.9,19.2,302.8l-65.2,65.1l-1280.2-1.9C830.2-505.8,236.1-513.4,215-521.1z"/><path d="M1209.6-1153.5c-92-55.6-103.5-116.9-103.5-580.7c0-624.7-11.5-609.4,521.3-609.4c314.3,0,356.5,3.8,412,38.3c109.2,65.2,116.9,231.9,15.3,322c-46,38.3-69,42.2-289.4,42.2h-237.6v316.2c0,356.5-17.2,429.3-113.1,477.2C1338-1107.5,1282.4-1109.4,1209.6-1153.5z"/><path d="M3043.6-1759.1c-295.1-82.4-538.5-312.4-653.5-613.2c-59.4-153.3-61.3-392.9-3.8-550c162.9-454.2,645.8-734,1069.4-620.9c318.1,84.3,596,352.6,686.1,661.2c128.4,438.8-149.5,942.9-611.3,1103.8C3398.2-1732.3,3172-1722.7,3043.6-1759.1z M3517-2201.8c237.6-116.9,325.8-458,184-718.7c-122.6-222.3-412-302.8-678.4-187.8c-115,49.8-168.6,103.5-222.3,218.5c-95.8,203.1-44.1,502.1,109.2,630.5C3068.5-2125.1,3311.9-2102.1,3517-2201.8z"/><path d="M7949.7-1761c-291.3-78.6-550-322-657.3-617.1c-57.5-157.1-55.6-396.7,3.8-550c174.4-458,642-728.2,1065.5-615.2c235.7,63.2,481,251,599.9,458c203.1,358.4,138,780-162.9,1075.1C8562.9-1776.3,8241-1682.5,7949.7-1761z M8423-2201.8c237.6-116.9,325.8-458,184-718.7c-122.7-222.3-412-302.8-678.4-187.8c-115,49.8-168.6,103.5-222.3,218.5c-95.8,203.1-44.1,502.1,109.2,630.5C7974.6-2125.1,8218-2102.1,8423-2201.8z"/></g></g>
</svg>